<mxfile host="Electron" modified="2024-04-08T03:12:59.812Z" agent="Mozilla/5.0 (Macintosh; Intel Mac OS X 10_15_7) AppleWebKit/537.36 (KHTML, like Gecko) draw.io/22.1.2 Chrome/114.0.5735.289 Electron/25.9.4 Safari/537.36" etag="U8lKjqZ4Gl9rJnfoHY0b" version="22.1.2" type="device">
  <diagram name="第 1 页" id="-vjxqWGmHO8_QhdDH1QY">
    <mxGraphModel dx="1789" dy="1180" grid="1" gridSize="10" guides="1" tooltips="1" connect="1" arrows="0" fold="1" page="1" pageScale="1" pageWidth="827" pageHeight="1169" math="0" shadow="0">
      <root>
        <mxCell id="0" />
        <mxCell id="1" parent="0" />
        <mxCell id="QuYdCY6oMRxMhdjkLtZX-7" value="" style="edgeStyle=orthogonalEdgeStyle;rounded=0;orthogonalLoop=1;jettySize=auto;html=1;fontFamily=Times New Roman;fontStyle=1;fontSize=13;labelBackgroundColor=none;strokeColor=#457B9D;fontColor=default;labelBorderColor=none;" edge="1" parent="1" source="QuYdCY6oMRxMhdjkLtZX-1" target="QuYdCY6oMRxMhdjkLtZX-6">
          <mxGeometry relative="1" as="geometry" />
        </mxCell>
        <mxCell id="QuYdCY6oMRxMhdjkLtZX-1" value="开始" style="rounded=1;whiteSpace=wrap;html=1;fontFamily=Times New Roman;fontStyle=1;fontSize=13;labelBackgroundColor=none;fillColor=#A8DADC;strokeColor=#457B9D;fontColor=#1D3557;labelBorderColor=none;" vertex="1" parent="1">
          <mxGeometry x="100" y="30" width="120" height="50" as="geometry" />
        </mxCell>
        <mxCell id="QuYdCY6oMRxMhdjkLtZX-15" value="" style="edgeStyle=orthogonalEdgeStyle;rounded=0;orthogonalLoop=1;jettySize=auto;html=1;fontFamily=Times New Roman;fontStyle=1;fontSize=13;labelBackgroundColor=none;strokeColor=#457B9D;fontColor=default;labelBorderColor=none;" edge="1" parent="1" source="QuYdCY6oMRxMhdjkLtZX-6" target="QuYdCY6oMRxMhdjkLtZX-14">
          <mxGeometry relative="1" as="geometry" />
        </mxCell>
        <mxCell id="QuYdCY6oMRxMhdjkLtZX-6" value="进入MAIN_LOOP" style="rounded=0;whiteSpace=wrap;html=1;fontFamily=Times New Roman;fontStyle=1;fontSize=13;labelBackgroundColor=none;fillColor=#A8DADC;strokeColor=#457B9D;fontColor=#1D3557;labelBorderColor=none;" vertex="1" parent="1">
          <mxGeometry x="100" y="120" width="120" height="60" as="geometry" />
        </mxCell>
        <mxCell id="QuYdCY6oMRxMhdjkLtZX-17" value="" style="edgeStyle=orthogonalEdgeStyle;rounded=0;orthogonalLoop=1;jettySize=auto;html=1;fontFamily=Times New Roman;fontStyle=1;fontSize=13;labelBackgroundColor=none;strokeColor=#457B9D;fontColor=default;labelBorderColor=none;" edge="1" parent="1" source="QuYdCY6oMRxMhdjkLtZX-14" target="QuYdCY6oMRxMhdjkLtZX-16">
          <mxGeometry relative="1" as="geometry" />
        </mxCell>
        <mxCell id="QuYdCY6oMRxMhdjkLtZX-14" value="等待键盘输入" style="rounded=0;whiteSpace=wrap;html=1;fontFamily=Times New Roman;fontStyle=1;fontSize=13;labelBackgroundColor=none;fillColor=#A8DADC;strokeColor=#457B9D;fontColor=#1D3557;labelBorderColor=none;" vertex="1" parent="1">
          <mxGeometry x="100" y="210" width="120" height="60" as="geometry" />
        </mxCell>
        <mxCell id="QuYdCY6oMRxMhdjkLtZX-19" value="" style="edgeStyle=orthogonalEdgeStyle;rounded=0;orthogonalLoop=1;jettySize=auto;html=1;fontFamily=Times New Roman;fontStyle=1;fontSize=13;labelBackgroundColor=none;strokeColor=#457B9D;fontColor=default;labelBorderColor=none;" edge="1" parent="1" source="QuYdCY6oMRxMhdjkLtZX-16">
          <mxGeometry relative="1" as="geometry">
            <mxPoint x="160" y="430" as="targetPoint" />
          </mxGeometry>
        </mxCell>
        <mxCell id="QuYdCY6oMRxMhdjkLtZX-20" value="N" style="edgeLabel;html=1;align=center;verticalAlign=middle;resizable=0;points=[];fontFamily=Times New Roman;fontStyle=1;fontSize=13;labelBackgroundColor=none;fontColor=#1D3557;labelBorderColor=none;" vertex="1" connectable="0" parent="QuYdCY6oMRxMhdjkLtZX-19">
          <mxGeometry x="-0.144" y="-1" relative="1" as="geometry">
            <mxPoint as="offset" />
          </mxGeometry>
        </mxCell>
        <mxCell id="QuYdCY6oMRxMhdjkLtZX-68" style="edgeStyle=orthogonalEdgeStyle;rounded=0;orthogonalLoop=1;jettySize=auto;html=1;exitX=0;exitY=0.5;exitDx=0;exitDy=0;entryX=0;entryY=0.5;entryDx=0;entryDy=0;fontFamily=Times New Roman;fontStyle=1;fontSize=13;labelBackgroundColor=none;strokeColor=#457B9D;fontColor=default;labelBorderColor=none;" edge="1" parent="1" source="QuYdCY6oMRxMhdjkLtZX-16" target="QuYdCY6oMRxMhdjkLtZX-65">
          <mxGeometry relative="1" as="geometry">
            <Array as="points">
              <mxPoint x="30" y="345" />
              <mxPoint x="30" y="1020" />
            </Array>
          </mxGeometry>
        </mxCell>
        <mxCell id="QuYdCY6oMRxMhdjkLtZX-78" value="Y" style="edgeLabel;html=1;align=center;verticalAlign=middle;resizable=0;points=[];fontFamily=Times New Roman;fontStyle=1;fontSize=13;labelBackgroundColor=none;fontColor=#1D3557;labelBorderColor=none;" vertex="1" connectable="0" parent="QuYdCY6oMRxMhdjkLtZX-68">
          <mxGeometry x="-0.9301" y="1" relative="1" as="geometry">
            <mxPoint as="offset" />
          </mxGeometry>
        </mxCell>
        <mxCell id="QuYdCY6oMRxMhdjkLtZX-16" value="是否为回车符？" style="rhombus;whiteSpace=wrap;html=1;rounded=0;fontFamily=Times New Roman;fontStyle=1;fontSize=13;labelBackgroundColor=none;fillColor=#A8DADC;strokeColor=#457B9D;fontColor=#1D3557;labelBorderColor=none;" vertex="1" parent="1">
          <mxGeometry x="90" y="310" width="140" height="70" as="geometry" />
        </mxCell>
        <mxCell id="QuYdCY6oMRxMhdjkLtZX-23" value="" style="edgeStyle=orthogonalEdgeStyle;rounded=0;orthogonalLoop=1;jettySize=auto;html=1;fontFamily=Times New Roman;fontStyle=1;fontSize=13;labelBackgroundColor=none;strokeColor=#457B9D;fontColor=default;labelBorderColor=none;" edge="1" parent="1" source="QuYdCY6oMRxMhdjkLtZX-21" target="QuYdCY6oMRxMhdjkLtZX-22">
          <mxGeometry relative="1" as="geometry" />
        </mxCell>
        <mxCell id="QuYdCY6oMRxMhdjkLtZX-24" value="Y" style="edgeLabel;html=1;align=center;verticalAlign=middle;resizable=0;points=[];fontFamily=Times New Roman;fontStyle=1;fontSize=13;labelBackgroundColor=none;fontColor=#1D3557;labelBorderColor=none;" vertex="1" connectable="0" parent="QuYdCY6oMRxMhdjkLtZX-23">
          <mxGeometry x="-0.28" relative="1" as="geometry">
            <mxPoint as="offset" />
          </mxGeometry>
        </mxCell>
        <mxCell id="QuYdCY6oMRxMhdjkLtZX-46" style="edgeStyle=orthogonalEdgeStyle;rounded=0;orthogonalLoop=1;jettySize=auto;html=1;entryX=0.5;entryY=0;entryDx=0;entryDy=0;fontFamily=Times New Roman;fontStyle=1;fontSize=13;labelBackgroundColor=none;strokeColor=#457B9D;fontColor=default;labelBorderColor=none;" edge="1" parent="1" source="QuYdCY6oMRxMhdjkLtZX-21" target="QuYdCY6oMRxMhdjkLtZX-28">
          <mxGeometry relative="1" as="geometry" />
        </mxCell>
        <mxCell id="QuYdCY6oMRxMhdjkLtZX-48" value="N" style="edgeLabel;html=1;align=center;verticalAlign=middle;resizable=0;points=[];fontFamily=Times New Roman;fontStyle=1;fontSize=13;labelBackgroundColor=none;fontColor=#1D3557;labelBorderColor=none;" vertex="1" connectable="0" parent="QuYdCY6oMRxMhdjkLtZX-46">
          <mxGeometry x="-0.3238" y="-1" relative="1" as="geometry">
            <mxPoint as="offset" />
          </mxGeometry>
        </mxCell>
        <mxCell id="QuYdCY6oMRxMhdjkLtZX-21" value="BL&amp;nbsp; &amp;lt;&amp;nbsp; &#39;A&#39; ?" style="rhombus;whiteSpace=wrap;html=1;rounded=0;fontFamily=Times New Roman;fontStyle=1;fontSize=13;labelBackgroundColor=none;fillColor=#A8DADC;strokeColor=#457B9D;fontColor=#1D3557;labelBorderColor=none;" vertex="1" parent="1">
          <mxGeometry x="90" y="430" width="140" height="70" as="geometry" />
        </mxCell>
        <mxCell id="QuYdCY6oMRxMhdjkLtZX-34" style="edgeStyle=orthogonalEdgeStyle;rounded=0;orthogonalLoop=1;jettySize=auto;html=1;fontFamily=Times New Roman;fontStyle=1;fontSize=13;labelBackgroundColor=none;strokeColor=#457B9D;fontColor=default;labelBorderColor=none;" edge="1" parent="1" source="QuYdCY6oMRxMhdjkLtZX-22">
          <mxGeometry relative="1" as="geometry">
            <mxPoint x="160" y="670" as="targetPoint" />
          </mxGeometry>
        </mxCell>
        <mxCell id="QuYdCY6oMRxMhdjkLtZX-22" value="进入IFNUM" style="whiteSpace=wrap;html=1;rounded=0;fontFamily=Times New Roman;fontStyle=1;fontSize=13;labelBackgroundColor=none;fillColor=#A8DADC;strokeColor=#457B9D;fontColor=#1D3557;labelBorderColor=none;" vertex="1" parent="1">
          <mxGeometry x="100" y="555" width="120" height="60" as="geometry" />
        </mxCell>
        <mxCell id="QuYdCY6oMRxMhdjkLtZX-31" value="" style="edgeStyle=orthogonalEdgeStyle;rounded=0;orthogonalLoop=1;jettySize=auto;html=1;fontFamily=Times New Roman;fontStyle=1;fontSize=13;labelBackgroundColor=none;strokeColor=#457B9D;fontColor=default;labelBorderColor=none;" edge="1" parent="1" source="QuYdCY6oMRxMhdjkLtZX-28" target="QuYdCY6oMRxMhdjkLtZX-30">
          <mxGeometry relative="1" as="geometry" />
        </mxCell>
        <mxCell id="QuYdCY6oMRxMhdjkLtZX-36" value="Y" style="edgeLabel;html=1;align=center;verticalAlign=middle;resizable=0;points=[];fontFamily=Times New Roman;fontStyle=1;fontSize=13;labelBackgroundColor=none;fontColor=#1D3557;labelBorderColor=none;" vertex="1" connectable="0" parent="QuYdCY6oMRxMhdjkLtZX-31">
          <mxGeometry x="-0.3067" relative="1" as="geometry">
            <mxPoint as="offset" />
          </mxGeometry>
        </mxCell>
        <mxCell id="QuYdCY6oMRxMhdjkLtZX-37" style="edgeStyle=orthogonalEdgeStyle;rounded=0;orthogonalLoop=1;jettySize=auto;html=1;entryX=0.5;entryY=0;entryDx=0;entryDy=0;fontFamily=Times New Roman;fontStyle=1;fontSize=13;labelBackgroundColor=none;strokeColor=#457B9D;fontColor=default;labelBorderColor=none;" edge="1" parent="1" source="QuYdCY6oMRxMhdjkLtZX-28" target="QuYdCY6oMRxMhdjkLtZX-38">
          <mxGeometry relative="1" as="geometry">
            <mxPoint x="500" y="635" as="targetPoint" />
          </mxGeometry>
        </mxCell>
        <mxCell id="QuYdCY6oMRxMhdjkLtZX-54" value="N" style="edgeLabel;html=1;align=center;verticalAlign=middle;resizable=0;points=[];fontFamily=Times New Roman;fontStyle=1;fontSize=13;labelBackgroundColor=none;fontColor=#1D3557;labelBorderColor=none;" vertex="1" connectable="0" parent="QuYdCY6oMRxMhdjkLtZX-37">
          <mxGeometry x="-0.4453" y="1" relative="1" as="geometry">
            <mxPoint as="offset" />
          </mxGeometry>
        </mxCell>
        <mxCell id="QuYdCY6oMRxMhdjkLtZX-28" value="BL&amp;nbsp; &amp;gt;&amp;nbsp; &#39;Z&#39; ?" style="rhombus;whiteSpace=wrap;html=1;rounded=0;fontFamily=Times New Roman;fontStyle=1;fontSize=13;labelBackgroundColor=none;fillColor=#A8DADC;strokeColor=#457B9D;fontColor=#1D3557;labelBorderColor=none;" vertex="1" parent="1">
          <mxGeometry x="270" y="520" width="140" height="70" as="geometry" />
        </mxCell>
        <mxCell id="QuYdCY6oMRxMhdjkLtZX-30" value="进入IFLETTER" style="whiteSpace=wrap;html=1;rounded=0;fontFamily=Times New Roman;fontStyle=1;fontSize=13;labelBackgroundColor=none;fillColor=#A8DADC;strokeColor=#457B9D;fontColor=#1D3557;labelBorderColor=none;" vertex="1" parent="1">
          <mxGeometry x="280" y="635" width="120" height="60" as="geometry" />
        </mxCell>
        <mxCell id="QuYdCY6oMRxMhdjkLtZX-40" style="edgeStyle=orthogonalEdgeStyle;rounded=0;orthogonalLoop=1;jettySize=auto;html=1;exitX=0.5;exitY=1;exitDx=0;exitDy=0;fontFamily=Times New Roman;fontStyle=1;fontSize=13;labelBackgroundColor=none;strokeColor=#457B9D;fontColor=default;labelBorderColor=none;" edge="1" parent="1" source="QuYdCY6oMRxMhdjkLtZX-35">
          <mxGeometry relative="1" as="geometry">
            <mxPoint x="159.8571428571429" y="800" as="targetPoint" />
          </mxGeometry>
        </mxCell>
        <mxCell id="QuYdCY6oMRxMhdjkLtZX-42" value="Y" style="edgeLabel;html=1;align=center;verticalAlign=middle;resizable=0;points=[];fontFamily=Times New Roman;fontStyle=1;fontSize=13;labelBackgroundColor=none;fontColor=#1D3557;labelBorderColor=none;" vertex="1" connectable="0" parent="QuYdCY6oMRxMhdjkLtZX-40">
          <mxGeometry x="-0.2105" y="1" relative="1" as="geometry">
            <mxPoint as="offset" />
          </mxGeometry>
        </mxCell>
        <mxCell id="QuYdCY6oMRxMhdjkLtZX-44" style="edgeStyle=orthogonalEdgeStyle;rounded=0;orthogonalLoop=1;jettySize=auto;html=1;exitX=1;exitY=0.5;exitDx=0;exitDy=0;entryX=0.5;entryY=0;entryDx=0;entryDy=0;fontFamily=Times New Roman;fontStyle=1;fontSize=13;labelBackgroundColor=none;strokeColor=#457B9D;fontColor=default;labelBorderColor=none;" edge="1" parent="1" source="QuYdCY6oMRxMhdjkLtZX-35" target="QuYdCY6oMRxMhdjkLtZX-50">
          <mxGeometry relative="1" as="geometry">
            <mxPoint x="340" y="790" as="targetPoint" />
            <mxPoint x="250" y="705" as="sourcePoint" />
          </mxGeometry>
        </mxCell>
        <mxCell id="QuYdCY6oMRxMhdjkLtZX-49" value="N" style="edgeLabel;html=1;align=center;verticalAlign=middle;resizable=0;points=[];fontFamily=Times New Roman;fontStyle=1;fontSize=13;labelBackgroundColor=none;fontColor=#1D3557;labelBorderColor=none;" vertex="1" connectable="0" parent="QuYdCY6oMRxMhdjkLtZX-44">
          <mxGeometry x="-0.5882" relative="1" as="geometry">
            <mxPoint as="offset" />
          </mxGeometry>
        </mxCell>
        <mxCell id="QuYdCY6oMRxMhdjkLtZX-35" value="BL &amp;lt; &#39;0&#39;" style="rhombus;whiteSpace=wrap;html=1;rounded=0;fontFamily=Times New Roman;fontStyle=1;fontSize=13;labelBackgroundColor=none;fillColor=#A8DADC;strokeColor=#457B9D;fontColor=#1D3557;labelBorderColor=none;" vertex="1" parent="1">
          <mxGeometry x="90" y="670" width="140" height="70" as="geometry" />
        </mxCell>
        <mxCell id="QuYdCY6oMRxMhdjkLtZX-39" style="edgeStyle=orthogonalEdgeStyle;rounded=0;orthogonalLoop=1;jettySize=auto;html=1;entryX=1;entryY=0.5;entryDx=0;entryDy=0;fontFamily=Times New Roman;fontStyle=1;fontSize=13;labelBackgroundColor=none;strokeColor=#457B9D;fontColor=default;labelBorderColor=none;" edge="1" parent="1" source="QuYdCY6oMRxMhdjkLtZX-38" target="QuYdCY6oMRxMhdjkLtZX-6">
          <mxGeometry relative="1" as="geometry">
            <Array as="points">
              <mxPoint x="600" y="705" />
              <mxPoint x="600" y="150" />
            </Array>
          </mxGeometry>
        </mxCell>
        <mxCell id="QuYdCY6oMRxMhdjkLtZX-38" value="LETTER ++" style="rounded=1;whiteSpace=wrap;html=1;fontFamily=Times New Roman;fontStyle=1;fontSize=13;labelBackgroundColor=none;fillColor=#A8DADC;strokeColor=#457B9D;fontColor=#1D3557;labelBorderColor=none;" vertex="1" parent="1">
          <mxGeometry x="440" y="620" width="120" height="60" as="geometry" />
        </mxCell>
        <mxCell id="QuYdCY6oMRxMhdjkLtZX-60" style="edgeStyle=orthogonalEdgeStyle;rounded=0;orthogonalLoop=1;jettySize=auto;html=1;exitX=0.5;exitY=1;exitDx=0;exitDy=0;entryX=0;entryY=0.5;entryDx=0;entryDy=0;fontFamily=Times New Roman;fontStyle=1;fontSize=13;labelBackgroundColor=none;strokeColor=#457B9D;fontColor=default;labelBorderColor=none;" edge="1" parent="1" source="QuYdCY6oMRxMhdjkLtZX-45" target="QuYdCY6oMRxMhdjkLtZX-61">
          <mxGeometry relative="1" as="geometry">
            <mxPoint x="430" y="960" as="targetPoint" />
            <Array as="points">
              <mxPoint x="160" y="900" />
            </Array>
          </mxGeometry>
        </mxCell>
        <mxCell id="QuYdCY6oMRxMhdjkLtZX-45" value="进入IFOTHER" style="whiteSpace=wrap;html=1;rounded=0;fontFamily=Times New Roman;fontStyle=1;fontSize=13;labelBackgroundColor=none;fillColor=#A8DADC;strokeColor=#457B9D;fontColor=#1D3557;labelBorderColor=none;" vertex="1" parent="1">
          <mxGeometry x="100" y="800" width="120" height="60" as="geometry" />
        </mxCell>
        <mxCell id="QuYdCY6oMRxMhdjkLtZX-51" style="edgeStyle=orthogonalEdgeStyle;rounded=0;orthogonalLoop=1;jettySize=auto;html=1;exitX=0;exitY=0.5;exitDx=0;exitDy=0;entryX=1;entryY=0.5;entryDx=0;entryDy=0;fontFamily=Times New Roman;fontStyle=1;fontSize=13;labelBackgroundColor=none;strokeColor=#457B9D;fontColor=default;labelBorderColor=none;" edge="1" parent="1" source="QuYdCY6oMRxMhdjkLtZX-50" target="QuYdCY6oMRxMhdjkLtZX-45">
          <mxGeometry relative="1" as="geometry" />
        </mxCell>
        <mxCell id="QuYdCY6oMRxMhdjkLtZX-53" value="Y" style="edgeLabel;html=1;align=center;verticalAlign=middle;resizable=0;points=[];fontFamily=Times New Roman;fontStyle=1;fontSize=13;labelBackgroundColor=none;fontColor=#1D3557;labelBorderColor=none;" vertex="1" connectable="0" parent="QuYdCY6oMRxMhdjkLtZX-51">
          <mxGeometry x="-0.192" y="-1" relative="1" as="geometry">
            <mxPoint as="offset" />
          </mxGeometry>
        </mxCell>
        <mxCell id="QuYdCY6oMRxMhdjkLtZX-57" style="edgeStyle=orthogonalEdgeStyle;rounded=0;orthogonalLoop=1;jettySize=auto;html=1;exitX=1;exitY=0.5;exitDx=0;exitDy=0;fontFamily=Times New Roman;fontStyle=1;fontSize=13;labelBackgroundColor=none;strokeColor=#457B9D;fontColor=default;labelBorderColor=none;" edge="1" parent="1" source="QuYdCY6oMRxMhdjkLtZX-50" target="QuYdCY6oMRxMhdjkLtZX-55">
          <mxGeometry relative="1" as="geometry" />
        </mxCell>
        <mxCell id="QuYdCY6oMRxMhdjkLtZX-58" value="N" style="edgeLabel;html=1;align=center;verticalAlign=middle;resizable=0;points=[];fontFamily=Times New Roman;fontStyle=1;fontSize=13;labelBackgroundColor=none;fontColor=#1D3557;labelBorderColor=none;" vertex="1" connectable="0" parent="QuYdCY6oMRxMhdjkLtZX-57">
          <mxGeometry x="-0.3754" relative="1" as="geometry">
            <mxPoint as="offset" />
          </mxGeometry>
        </mxCell>
        <mxCell id="QuYdCY6oMRxMhdjkLtZX-50" value="BL&amp;nbsp; &amp;gt;&amp;nbsp; &#39;9&#39; ?" style="rhombus;whiteSpace=wrap;html=1;rounded=0;fontFamily=Times New Roman;fontStyle=1;fontSize=13;labelBackgroundColor=none;fillColor=#A8DADC;strokeColor=#457B9D;fontColor=#1D3557;labelBorderColor=none;" vertex="1" parent="1">
          <mxGeometry x="270" y="795" width="140" height="70" as="geometry" />
        </mxCell>
        <mxCell id="QuYdCY6oMRxMhdjkLtZX-59" style="edgeStyle=orthogonalEdgeStyle;rounded=0;orthogonalLoop=1;jettySize=auto;html=1;endArrow=none;endFill=0;fontFamily=Times New Roman;fontStyle=1;fontSize=13;labelBackgroundColor=none;strokeColor=#457B9D;fontColor=default;labelBorderColor=none;" edge="1" parent="1" source="QuYdCY6oMRxMhdjkLtZX-55">
          <mxGeometry relative="1" as="geometry">
            <mxPoint x="600" y="700" as="targetPoint" />
          </mxGeometry>
        </mxCell>
        <mxCell id="QuYdCY6oMRxMhdjkLtZX-55" value="NUM ++" style="rounded=1;whiteSpace=wrap;html=1;fontFamily=Times New Roman;fontStyle=1;fontSize=13;labelBackgroundColor=none;fillColor=#A8DADC;strokeColor=#457B9D;fontColor=#1D3557;labelBorderColor=none;" vertex="1" parent="1">
          <mxGeometry x="440" y="870" width="120" height="60" as="geometry" />
        </mxCell>
        <mxCell id="QuYdCY6oMRxMhdjkLtZX-62" style="edgeStyle=orthogonalEdgeStyle;rounded=0;orthogonalLoop=1;jettySize=auto;html=1;exitX=0.5;exitY=1;exitDx=0;exitDy=0;endArrow=none;endFill=0;fontFamily=Times New Roman;fontStyle=1;fontSize=13;labelBackgroundColor=none;strokeColor=#457B9D;fontColor=default;labelBorderColor=none;" edge="1" parent="1" source="QuYdCY6oMRxMhdjkLtZX-61">
          <mxGeometry relative="1" as="geometry">
            <mxPoint x="600" y="900" as="targetPoint" />
            <Array as="points">
              <mxPoint x="330" y="950" />
              <mxPoint x="600" y="950" />
            </Array>
          </mxGeometry>
        </mxCell>
        <mxCell id="QuYdCY6oMRxMhdjkLtZX-61" value="OTHER ++" style="rounded=1;whiteSpace=wrap;html=1;fontFamily=Times New Roman;fontStyle=1;fontSize=13;labelBackgroundColor=none;fillColor=#A8DADC;strokeColor=#457B9D;fontColor=#1D3557;labelBorderColor=none;" vertex="1" parent="1">
          <mxGeometry x="270" y="870" width="120" height="60" as="geometry" />
        </mxCell>
        <mxCell id="QuYdCY6oMRxMhdjkLtZX-69" style="edgeStyle=orthogonalEdgeStyle;rounded=0;orthogonalLoop=1;jettySize=auto;html=1;exitX=1;exitY=0.5;exitDx=0;exitDy=0;entryX=0;entryY=0.5;entryDx=0;entryDy=0;fontFamily=Times New Roman;fontStyle=1;fontSize=13;labelBackgroundColor=none;strokeColor=#457B9D;fontColor=default;labelBorderColor=none;" edge="1" parent="1" source="QuYdCY6oMRxMhdjkLtZX-65" target="QuYdCY6oMRxMhdjkLtZX-67">
          <mxGeometry relative="1" as="geometry" />
        </mxCell>
        <mxCell id="QuYdCY6oMRxMhdjkLtZX-72" style="edgeStyle=orthogonalEdgeStyle;rounded=0;orthogonalLoop=1;jettySize=auto;html=1;exitX=1;exitY=0.5;exitDx=0;exitDy=0;fontFamily=Times New Roman;fontStyle=1;fontSize=13;labelBackgroundColor=none;strokeColor=#457B9D;fontColor=default;labelBorderColor=none;" edge="1" parent="1">
          <mxGeometry relative="1" as="geometry">
            <mxPoint x="280" y="1090" as="targetPoint" />
            <mxPoint x="220" y="1010.0000000000002" as="sourcePoint" />
            <Array as="points">
              <mxPoint x="220" y="1020" />
              <mxPoint x="240" y="1020" />
              <mxPoint x="240" y="1090" />
            </Array>
          </mxGeometry>
        </mxCell>
        <mxCell id="QuYdCY6oMRxMhdjkLtZX-65" value="进入SHOW_RES" style="rounded=0;whiteSpace=wrap;html=1;fontFamily=Times New Roman;fontStyle=1;fontSize=13;labelBackgroundColor=none;fillColor=#A8DADC;strokeColor=#457B9D;fontColor=#1D3557;labelBorderColor=none;" vertex="1" parent="1">
          <mxGeometry x="100" y="990" width="120" height="60" as="geometry" />
        </mxCell>
        <mxCell id="QuYdCY6oMRxMhdjkLtZX-71" style="edgeStyle=orthogonalEdgeStyle;rounded=0;orthogonalLoop=1;jettySize=auto;html=1;exitX=1;exitY=0.5;exitDx=0;exitDy=0;entryX=0;entryY=0.5;entryDx=0;entryDy=0;fontFamily=Times New Roman;fontStyle=1;fontSize=13;labelBackgroundColor=none;strokeColor=#457B9D;fontColor=default;labelBorderColor=none;" edge="1" parent="1" source="QuYdCY6oMRxMhdjkLtZX-67" target="QuYdCY6oMRxMhdjkLtZX-70">
          <mxGeometry relative="1" as="geometry" />
        </mxCell>
        <mxCell id="QuYdCY6oMRxMhdjkLtZX-67" value="调用&#39;09&#39;程序&lt;br style=&quot;font-size: 13px;&quot;&gt;显示字符串Res1" style="rounded=1;whiteSpace=wrap;html=1;fontFamily=Times New Roman;fontStyle=1;fontSize=13;labelBackgroundColor=none;fillColor=#A8DADC;strokeColor=#457B9D;fontColor=#1D3557;labelBorderColor=none;" vertex="1" parent="1">
          <mxGeometry x="280" y="990" width="120" height="60" as="geometry" />
        </mxCell>
        <mxCell id="QuYdCY6oMRxMhdjkLtZX-70" value="调用子程序COPE_DATA" style="rounded=0;whiteSpace=wrap;html=1;fontFamily=Times New Roman;fontStyle=1;fontSize=13;labelBackgroundColor=none;fillColor=#A8DADC;strokeColor=#457B9D;fontColor=#1D3557;labelBorderColor=none;" vertex="1" parent="1">
          <mxGeometry x="550" y="1060" width="120" height="60" as="geometry" />
        </mxCell>
        <mxCell id="QuYdCY6oMRxMhdjkLtZX-73" style="edgeStyle=orthogonalEdgeStyle;rounded=0;orthogonalLoop=1;jettySize=auto;html=1;fontFamily=Times New Roman;fontStyle=1;fontSize=13;labelBackgroundColor=none;strokeColor=#457B9D;fontColor=default;labelBorderColor=none;" edge="1" parent="1">
          <mxGeometry relative="1" as="geometry">
            <mxPoint x="280" y="1159.97" as="targetPoint" />
            <mxPoint x="220" y="1050" as="sourcePoint" />
            <Array as="points">
              <mxPoint x="220" y="1020" />
              <mxPoint x="240" y="1020" />
              <mxPoint x="240" y="1160" />
            </Array>
          </mxGeometry>
        </mxCell>
        <mxCell id="QuYdCY6oMRxMhdjkLtZX-76" style="edgeStyle=orthogonalEdgeStyle;rounded=0;orthogonalLoop=1;jettySize=auto;html=1;exitX=1;exitY=0.5;exitDx=0;exitDy=0;fontFamily=Times New Roman;fontStyle=1;fontSize=13;labelBackgroundColor=none;strokeColor=#457B9D;fontColor=default;labelBorderColor=none;" edge="1" parent="1" source="QuYdCY6oMRxMhdjkLtZX-74" target="QuYdCY6oMRxMhdjkLtZX-70">
          <mxGeometry relative="1" as="geometry" />
        </mxCell>
        <mxCell id="QuYdCY6oMRxMhdjkLtZX-74" value="调用&#39;09&#39;程序&lt;br style=&quot;font-size: 13px;&quot;&gt;显示字符串Res1" style="rounded=1;whiteSpace=wrap;html=1;fontFamily=Times New Roman;fontStyle=1;fontSize=13;labelBackgroundColor=none;fillColor=#A8DADC;strokeColor=#457B9D;fontColor=#1D3557;labelBorderColor=none;" vertex="1" parent="1">
          <mxGeometry x="280" y="1060" width="120" height="60" as="geometry" />
        </mxCell>
        <mxCell id="QuYdCY6oMRxMhdjkLtZX-77" style="edgeStyle=orthogonalEdgeStyle;rounded=0;orthogonalLoop=1;jettySize=auto;html=1;exitX=1;exitY=0.5;exitDx=0;exitDy=0;fontFamily=Times New Roman;fontStyle=1;fontSize=13;labelBackgroundColor=none;strokeColor=#457B9D;fontColor=default;labelBorderColor=none;" edge="1" parent="1">
          <mxGeometry relative="1" as="geometry">
            <mxPoint x="550" y="1090" as="targetPoint" />
            <mxPoint x="395" y="1160.0000000000002" as="sourcePoint" />
            <Array as="points">
              <mxPoint x="475" y="1160" />
              <mxPoint x="475" y="1090" />
            </Array>
          </mxGeometry>
        </mxCell>
        <mxCell id="QuYdCY6oMRxMhdjkLtZX-75" value="调用&#39;09&#39;程序&lt;br style=&quot;font-size: 13px;&quot;&gt;显示字符串Res1" style="rounded=1;whiteSpace=wrap;html=1;fontFamily=Times New Roman;fontStyle=1;fontSize=13;labelBackgroundColor=none;fillColor=#A8DADC;strokeColor=#457B9D;fontColor=#1D3557;labelBorderColor=none;" vertex="1" parent="1">
          <mxGeometry x="280" y="1130" width="120" height="60" as="geometry" />
        </mxCell>
      </root>
    </mxGraphModel>
  </diagram>
</mxfile>
